<svg width="313" height="60" viewBox="0 0 313 60" fill="none" xmlns="http://www.w3.org/2000/svg">
<g clip-path="url(#clip0_136_243)">
<path d="M33.3864 30.5641L38.6253 36.1521L16.718 56.6896C14.6698 58.6101 11.4507 58.5075 9.52987 56.4598L8.2387 55.084L0 46.2953L5.58916 41.0575L13.3574 49.3404L33.3864 30.5641Z" fill="black"/>
<path d="M76.7696 57.1777C73.7592 55.2962 71.4316 52.6897 69.7937 49.3546C68.1524 46.023 67.3352 42.2599 67.3352 38.0654C67.3352 33.8709 68.1559 30.1114 69.7937 26.7763C71.4316 23.4447 73.7592 20.8382 76.7696 18.9531C79.7799 17.0716 83.2749 16.1309 87.2545 16.1309C91.2342 16.1309 94.715 17.0716 97.7006 18.9531C100.686 20.8347 102.996 23.4554 104.638 26.8152C106.275 30.1751 107.096 33.9806 107.096 38.2246V40.6437H75.3192C75.6942 44.5128 76.9181 47.6074 78.9875 49.9169C81.0569 52.2299 83.8126 53.3829 87.2545 53.3829C89.8899 53.3829 92.1857 52.7639 94.149 51.5296C96.1123 50.2953 97.5768 48.5447 98.5461 46.2882H106.29C104.945 50.4828 102.593 53.8143 99.2323 56.2865C95.8717 58.7586 91.878 59.9965 87.2545 59.9965C83.2749 59.9965 79.7799 59.0557 76.7696 57.1742V57.1777ZM99.112 34.2776C98.5213 30.7303 97.216 27.9222 95.1996 25.8497C93.1833 23.7807 90.5338 22.7445 87.2545 22.7445C83.9753 22.7445 81.3116 23.7807 79.2705 25.8497C77.2259 27.9187 75.9347 30.7268 75.4006 34.2776H99.112Z" fill="black"/>
<path d="M112.048 17.1211H119.297V24.3678C120.8 21.5243 122.664 19.5225 124.893 18.3696C127.122 17.2166 129.658 16.6366 132.502 16.6366H135.725V23.8833H132.261C128.342 23.8833 125.254 24.8912 123 26.9036C120.747 28.916 119.619 32.3395 119.619 37.1706V58.992H112.048V17.1211Z" fill="black"/>
<path d="M153.667 4.23697V17.1211H164.781V23.5615H153.667V48.2794C153.667 49.7825 154.003 50.8718 154.675 51.5402C155.347 52.2122 156.433 52.5482 157.936 52.5482H164.781V58.9885H156.327C152.676 58.9885 150.044 58.2104 148.435 56.6543C146.825 55.0982 146.019 52.6013 146.019 49.1671V23.5615H138.367V17.1211H146.019V4.23697H153.67H153.667Z" fill="black"/>
<path d="M170.367 1.01505H177.937V9.54909H170.367V1.01505ZM170.367 17.1211H178.018V58.9885H170.367V17.1211Z" fill="black"/>
<path d="M192.868 3.31036C194.478 1.77897 197.11 1.01505 200.761 1.01505H209.215V7.45536H202.37C200.867 7.45536 199.777 7.79135 199.109 8.46332C198.436 9.13529 198.1 10.1928 198.1 11.6428V17.1176H209.215V23.5579H198.1V58.985H190.449V23.5579H182.797V17.1176H190.449V10.8364C190.449 7.34926 191.255 4.83821 192.865 3.30682L192.868 3.31036Z" fill="black"/>
<path d="M214.259 1.01505H221.83V9.54909H214.259V1.01505ZM214.259 17.1211H221.911V58.9885H214.259V17.1211Z" fill="black"/>
<path d="M237.645 57.1388C234.639 55.2608 232.318 52.6578 230.68 49.3298C229.042 46.0018 228.225 42.2458 228.225 38.0584C228.225 33.8709 229.042 30.1149 230.68 26.7869C232.318 23.4589 234.639 20.8559 237.645 18.9779C240.652 17.0999 244.14 16.1591 248.116 16.1591C252.092 16.1591 255.566 17.0999 258.545 18.9779C261.523 20.8559 263.833 23.473 265.471 26.8294C267.109 30.1857 267.926 33.9841 267.926 38.221V40.6366H236.195C236.57 44.5022 237.79 47.5897 239.86 49.8957C241.926 52.2051 244.678 53.3581 248.116 53.3581C250.745 53.3581 253.04 52.7427 255 51.5049C256.96 50.2706 258.424 48.527 259.39 46.2706H267.123C265.779 50.458 263.43 53.786 260.076 56.2546C256.719 58.7233 252.733 59.9576 248.116 59.9576C244.144 59.9576 240.652 59.0168 237.645 57.1388ZM259.953 34.2706C259.362 30.7268 258.06 27.9222 256.047 25.8568C254.034 23.7913 251.388 22.7551 248.116 22.7551C244.844 22.7551 242.184 23.7878 240.143 25.8568C238.102 27.9222 236.814 30.7268 236.276 34.2706H259.953Z" fill="black"/>
<path d="M305.752 58.9885V52.626C304.248 54.9885 302.317 56.7993 299.954 58.0619C297.591 59.3245 294.853 59.954 291.74 59.954C287.658 59.954 284.17 59.0133 281.269 57.1353C278.368 55.2573 276.168 52.6685 274.665 49.3652C273.161 46.0654 272.411 42.2953 272.411 38.0513C272.411 33.8073 273.161 30.0407 274.665 26.7374C276.168 23.4377 278.368 20.8488 281.269 18.9673C284.17 17.0893 287.658 16.1486 291.74 16.1486C297.701 16.1486 302.264 18.4297 305.43 22.9921V1.01505H313V58.9885H305.752ZM302.289 49.1247C304.436 46.359 305.511 42.6702 305.511 38.0548C305.511 33.4394 304.436 29.7471 302.289 26.985C300.141 24.2193 297.025 22.84 292.946 22.84C288.868 22.84 285.67 24.2228 283.522 26.985C281.375 29.7507 280.3 33.4394 280.3 38.0548C280.3 42.6702 281.372 46.3625 283.522 49.1247C285.67 51.8904 288.811 53.2697 292.946 53.2697C297.081 53.2697 300.141 51.8868 302.289 49.1247Z" fill="black"/>
<path d="M19.9087 33.8355C19.7672 32.5977 19.6894 31.321 19.6894 29.9982C19.6894 25.7542 20.4004 21.924 21.826 18.5075C23.2516 15.0946 25.4413 12.3926 28.3986 10.405C31.3559 8.41733 34.9853 7.41999 39.2868 7.41999C43.5884 7.41999 47.0303 8.61539 49.9345 11.0097C52.8388 13.4005 54.6641 16.534 55.4176 20.4032H63.5643C62.8639 16.481 61.4524 12.9726 59.33 9.88152C57.204 6.79045 54.4235 4.37136 50.9816 2.62423C47.5397 0.877103 43.6414 0.00354004 39.2868 0.00354004C33.3192 0.00354004 28.2217 1.34748 24.0015 4.03537C19.7814 6.72326 16.6083 10.3378 14.4858 14.8824C12.3598 19.4271 11.2986 24.4668 11.2986 30.0018C11.2986 33.7401 11.7938 37.2485 12.7631 40.534L19.9016 33.8391L19.9087 33.8355Z" fill="black"/>
<path d="M55.8244 37.7365C55.2336 42.1432 53.4578 45.7188 50.5005 48.4598C47.5432 51.2007 43.8077 52.5729 39.2904 52.5729C36.7187 52.5729 34.3946 52.2051 32.3039 51.4942L26.2195 57.1989C29.9728 59.0592 34.3309 59.9894 39.2904 59.9894C43.9138 59.9894 47.9854 59.0203 51.5087 57.0858C55.0285 55.1512 57.8514 52.5022 59.9774 49.1423C62.0998 45.7825 63.4299 41.9805 63.9711 37.733H55.8244V37.7365Z" fill="black"/>
</g>
<defs>
<clipPath id="clip0_136_243">
<rect width="313" height="60" fill="white"/>
</clipPath>
</defs>
</svg>
