<svg width="625" height="110" viewBox="0 0 625 110" fill="none" xmlns="http://www.w3.org/2000/svg">
<g clip-path="url(#clip0_2711_2926)">
<path d="M98.1643 0H11.8337C5.2976 0 -0.000976562 5.29858 -0.000976562 11.8347V98.1653C-0.000976562 104.701 5.2976 110 11.8337 110H98.1643C104.7 110 109.999 104.701 109.999 98.1653V11.8347C109.999 5.29858 104.7 0 98.1643 0Z" fill="black"/>
<path d="M86.5943 86.6028C88.9657 84.2313 84.1549 76.3275 85.8275 74.066C87.8269 71.3613 95.0222 73.8752 97.8305 72.2058C100.639 70.5363 99.3219 66.324 100.024 63.1631C100.726 60.0022 105.673 59.7402 105.673 55.0005C105.673 50.2608 100.726 49.9955 100.024 46.8378C99.3219 43.6769 100.639 39.4646 97.8305 37.7952C95.0222 36.1258 87.8269 38.6396 85.8275 35.9349C84.1549 33.6702 88.9625 25.7663 86.5943 23.3981C84.2228 21.0266 76.319 25.8375 74.0575 24.1649C71.3528 22.1655 73.8666 14.9702 72.1972 12.1619C70.5278 9.3537 66.3154 10.6705 63.1546 9.9684C59.9937 9.26634 59.7316 4.31958 54.9919 4.31958C50.2522 4.31958 49.9869 9.26634 46.8293 9.9684C43.6684 10.6705 39.456 9.3537 37.7866 12.1619C36.1172 14.9702 38.631 22.1655 35.9263 24.1649C33.6616 25.8375 25.7578 21.0299 23.3896 23.3981C21.0181 25.7696 25.829 33.6734 24.1563 35.9349C22.1569 38.6396 14.9616 36.1258 12.1534 37.7952C9.34515 39.4646 10.6619 43.6769 9.95986 46.8378C9.2578 49.9987 4.31104 50.2608 4.31104 55.0005C4.31104 59.7402 9.2578 60.0055 9.95986 63.1631C10.6619 66.324 9.34515 70.5363 12.1534 72.2058C14.9616 73.8752 22.1569 71.3613 24.1563 74.066C25.829 76.3308 21.0213 84.2346 23.3896 86.6028C25.761 88.9743 33.6649 84.1634 35.9263 85.8361C38.631 87.8355 36.1172 95.0308 37.7866 97.839C39.456 100.647 43.6684 99.3305 46.8293 100.033C49.9902 100.735 50.2522 105.681 54.9919 105.681C59.7316 105.681 59.9969 100.735 63.1546 100.033C66.3154 99.3305 70.5278 100.647 72.1972 97.839C73.8666 95.0308 71.3528 87.8355 74.0575 85.8361C76.3222 84.1634 84.226 88.971 86.5943 86.6028Z" fill="white"/>
<path d="M78.4272 78.4333C80.1839 76.6765 76.6187 70.8142 77.8578 69.1351C79.3395 67.1292 84.6745 68.9927 86.7581 67.7568C88.8416 66.5209 87.8645 63.3957 88.3854 61.0533C88.9063 58.7109 92.5719 58.5136 92.5719 55.0001C92.5719 51.4865 88.9063 51.2892 88.3854 48.9468C87.8645 46.6045 88.8416 43.4792 86.7581 42.2433C84.6745 41.0074 79.3395 42.8709 77.8578 40.8651C76.6187 39.1859 80.1839 33.3268 78.4272 31.5668C76.6704 29.8101 70.8081 33.3754 69.129 32.1362C67.1231 30.6545 68.9866 25.3195 67.7507 23.2359C66.5148 21.1524 63.3895 22.1295 61.0472 21.6086C58.7048 21.0877 58.5075 17.4221 54.994 17.4221C51.4804 17.4221 51.2831 21.0877 48.9407 21.6086C46.5984 22.1295 43.4731 21.1524 42.2372 23.2359C41.0013 25.3195 42.8648 30.6545 40.859 32.1362C39.1798 33.3754 33.3207 29.8101 31.5607 31.5668C29.804 33.3236 33.3693 39.1859 32.1301 40.8651C30.6484 42.8709 25.3134 41.0074 23.2298 42.2433C21.1463 43.4792 22.1234 46.6045 21.6025 48.9468C21.0816 51.2892 17.416 51.4865 17.416 55.0001C17.416 58.5136 21.0816 58.7109 21.6025 61.0533C22.1234 63.3957 21.1463 66.5209 23.2298 67.7568C25.3134 68.9927 30.6484 67.1292 32.1301 69.1351C33.3693 70.8142 29.804 76.6733 31.5607 78.4333C33.3175 80.1933 39.1798 76.6248 40.859 77.8639C42.8648 79.3456 41.0013 84.6806 42.2372 86.7642C43.4731 88.8477 46.5984 87.8706 48.9407 88.3915C51.2831 88.9124 51.4804 92.578 54.994 92.578C58.5075 92.578 58.7048 88.9124 61.0472 88.3915C63.3895 87.8706 66.5148 88.8477 67.7507 86.7642C68.9866 84.6806 67.1231 79.3456 69.129 77.8639C70.8081 76.6248 76.6672 80.1901 78.4272 78.4333Z" fill="black"/>
<path d="M69.7188 69.7236C70.822 68.6204 68.5832 64.9354 69.3629 63.8807C70.2946 62.6222 73.6464 63.7901 74.9567 63.0136C76.267 62.2372 75.6523 60.2733 75.9791 58.8013C76.3058 57.3292 78.6093 57.2063 78.6093 54.9966C78.6093 52.7869 76.3058 52.6639 75.9791 51.1919C75.6523 49.7198 76.2638 47.756 74.9567 46.9795C73.6464 46.203 70.2946 47.3742 69.3629 46.1124C68.5832 45.0577 70.8252 41.376 69.7188 40.2695C68.6155 39.1663 64.9305 41.4051 63.8758 40.6254C62.6173 39.6936 63.7852 36.3419 63.0088 35.0316C62.2323 33.7213 60.2685 34.336 58.7964 34.0092C57.3243 33.6824 57.2014 31.3789 54.9917 31.3789C52.782 31.3789 52.659 33.6824 51.187 34.0092C49.7149 34.336 47.7511 33.7245 46.9746 35.0316C46.1982 36.3419 47.3693 39.6936 46.1076 40.6254C45.0529 41.4051 41.3711 39.163 40.2646 40.2695C39.1581 41.376 41.4002 45.0577 40.6205 46.1124C39.6887 47.371 36.337 46.203 35.0267 46.9795C33.7164 47.756 34.3311 49.7198 34.0043 51.1919C33.6776 52.6639 31.374 52.7869 31.374 54.9966C31.374 57.2063 33.6776 57.3292 34.0043 58.8013C34.3311 60.2733 33.7196 62.2372 35.0267 63.0136C36.337 63.7901 39.6887 62.6189 40.6205 63.8807C41.4002 64.9354 39.1581 68.6172 40.2646 69.7236C41.3679 70.8269 45.0529 68.5881 46.1076 69.3678C47.3661 70.2995 46.1982 73.6513 46.9746 74.9616C47.7511 76.2719 49.7149 75.6572 51.187 75.9839C52.659 76.3107 52.782 78.6142 54.9917 78.6142C57.2014 78.6142 57.3243 76.3107 58.7964 75.9839C60.2685 75.6572 62.2323 76.2686 63.0088 74.9616C63.7852 73.6513 62.614 70.2995 63.8758 69.3678C64.9305 68.5881 68.6123 70.8301 69.7188 69.7236Z" fill="white"/>
<path d="M152.577 17.4705H162.629V47.9437H200.932V17.4705H210.884V89.8861H200.932V57.1999H162.629V89.8861H152.577V17.4705Z" fill="black"/>
<path d="M216.67 101.854H224.713C226.253 101.854 227.479 101.653 228.382 101.252C229.284 100.851 230.006 100.246 230.543 99.44C231.08 98.6344 231.614 97.4956 232.151 96.0203L234.464 89.9865L214.561 37.5876H224.913L239.388 78.8247L253.863 37.5876H264.116L241.397 97.8321C240.391 100.582 239.388 102.776 238.382 104.419C237.376 106.063 236.036 107.402 234.361 108.441C232.685 109.479 230.54 110 227.926 110H216.667V101.854H216.67Z" fill="black"/>
<path d="M294.007 36.3774C299.035 36.3774 303.357 37.5519 306.974 39.8974C310.595 42.2463 313.341 45.4783 315.218 49.6033C317.094 53.7251 318.033 58.4389 318.033 63.7351C318.033 69.0313 317.094 73.7419 315.218 77.8669C313.341 81.9919 310.595 85.2272 306.974 87.5728C303.354 89.9183 299.032 91.0928 294.007 91.0928C290.254 91.0928 286.935 90.3551 284.056 88.8798C281.173 87.4045 278.795 85.3275 276.919 82.6454V110.003H267.468V37.5842H276.514V45.4298C278.459 42.5471 280.869 40.318 283.751 38.7424C286.631 37.1669 290.051 36.3807 294.004 36.3807L294.007 36.3774ZM292.5 44.7277C289.015 44.7277 286.116 45.5333 283.803 47.1413C281.49 48.7492 279.73 50.9816 278.527 53.8286C277.32 56.6789 276.718 59.9822 276.718 63.7351C276.718 67.488 277.323 70.7913 278.527 73.6416C279.733 76.4919 281.493 78.721 283.803 80.3289C286.116 81.9369 289.012 82.7425 292.5 82.7425C295.987 82.7425 298.799 81.9369 301.144 80.3289C303.49 78.721 305.25 76.4919 306.421 73.6416C307.592 70.7913 308.181 67.4913 308.181 63.7351C308.181 59.9789 307.596 56.6789 306.421 53.8286C305.247 50.9783 303.487 48.7492 301.144 47.1413C298.799 45.5333 295.916 44.7277 292.5 44.7277Z" fill="black"/>
<path d="M333.561 87.5726C329.808 85.227 326.909 81.9755 324.864 77.8182C322.82 73.6608 321.797 68.9664 321.797 63.7382C321.797 58.51 322.82 53.8155 324.864 49.6582C326.909 45.5008 329.805 42.2494 333.561 39.9038C337.314 37.5582 341.669 36.3838 346.631 36.3838C351.594 36.3838 355.946 37.5582 359.699 39.9038C363.452 42.2526 366.334 45.5203 368.344 49.71C370.353 53.8997 371.359 58.6782 371.359 64.0423V67.0608H331.752C332.086 70.212 332.872 72.962 334.114 75.3076C335.353 77.6564 337.029 79.5005 339.142 80.8399C341.251 82.1826 343.749 82.8523 346.631 82.8523C349.98 82.8523 352.863 82.0661 355.276 80.4905C357.69 78.9149 359.498 76.7538 360.705 74.0038H370.356C368.68 79.2352 365.746 83.3926 361.559 86.4758C357.369 89.5623 352.394 91.1023 346.631 91.1023C341.672 91.1023 337.314 89.9279 333.561 87.5823V87.5726ZM356.531 48.4967C354.018 45.915 350.718 44.6241 346.628 44.6241C342.539 44.6241 339.223 45.915 336.676 48.4967C334.13 51.0785 332.519 54.5823 331.853 59.0082H361.307C360.637 54.5823 359.045 51.0817 356.531 48.4967Z" fill="black"/>
<path d="M377.351 37.5842H386.4V46.436C388.345 42.9515 390.687 40.5024 393.437 39.0951C396.184 37.6877 399.335 36.9824 402.887 36.9824H406.909V46.0348H402.586C399.503 46.0348 396.789 46.5557 394.443 47.5942C392.098 48.636 390.237 50.3604 388.862 52.7739C387.487 55.1874 386.801 58.4745 386.801 62.6319V89.8892H377.351V37.5842Z" fill="black"/>
<path d="M419.276 87.5726C415.523 85.227 412.641 81.9756 410.631 77.8182C408.622 73.6609 407.616 68.9664 407.616 63.7382C407.616 58.51 408.622 53.8156 410.631 49.6582C412.641 45.5009 415.523 42.2494 419.276 39.9038C423.029 37.5582 427.351 36.3838 432.243 36.3838C438.743 36.3838 443.987 38.1114 447.976 41.5635C451.962 45.0188 454.36 49.6938 455.165 55.595H445.414C444.676 52.2432 443.169 49.5935 440.891 47.6491C438.61 45.7047 435.728 44.7341 432.246 44.7341C429.095 44.7341 426.416 45.5397 424.204 47.1476C421.994 48.7556 420.315 50.9879 419.176 53.835C418.037 56.6853 417.468 59.9885 417.468 63.7414C417.468 67.4944 418.037 70.7976 419.176 73.6479C420.315 76.4982 421.991 78.7273 424.204 80.3353C426.416 81.9432 429.095 82.7488 432.246 82.7488C435.731 82.7488 438.63 81.762 440.943 79.782C443.256 77.8053 444.744 75.0714 445.417 71.5838H455.169C454.431 77.417 451.985 82.1276 447.831 85.7156C443.674 89.3035 438.481 91.0959 432.25 91.0959C427.358 91.0959 423.036 89.9215 419.283 87.5759L419.276 87.5726Z" fill="black"/>
<path d="M469.8 87.5726C466.047 85.227 463.148 81.9755 461.104 77.8182C459.059 73.6608 458.037 68.9664 458.037 63.7382C458.037 58.51 459.059 53.8155 461.104 49.6582C463.148 45.5008 466.044 42.2494 469.8 39.9038C473.553 37.5582 477.908 36.3838 482.871 36.3838C487.834 36.3838 492.185 37.5582 495.938 39.9038C499.691 42.2526 502.574 45.5203 504.583 49.71C506.595 53.8997 507.598 58.6782 507.598 64.0423V67.0608H467.988C468.322 70.212 469.111 72.962 470.35 75.3076C471.589 77.6564 473.265 79.5005 475.378 80.8399C477.487 82.1826 479.985 82.8523 482.867 82.8523C486.216 82.8523 489.099 82.0661 491.512 80.4905C493.926 78.9149 495.734 76.7538 496.941 74.0038H506.592C504.916 79.2352 501.982 83.3926 497.795 86.4758C493.605 89.5623 488.63 91.1023 482.867 91.1023C477.908 91.1023 473.55 89.9279 469.797 87.5823L469.8 87.5726ZM492.771 48.4967C490.257 45.915 486.954 44.6241 482.867 44.6241C478.781 44.6241 475.462 45.915 472.916 48.4967C470.37 51.0785 468.758 54.5823 468.092 59.0082H497.546C496.876 54.5823 495.285 51.0817 492.771 48.4967Z" fill="black"/>
<path d="M513.597 37.5839H522.642V46.4357C524.587 42.9513 526.932 40.5022 529.679 39.0948C532.426 37.6875 535.574 36.9822 539.129 36.9822H543.151V46.0345H538.829C535.745 46.0345 533.031 46.5554 530.685 47.594C528.34 48.6357 526.479 50.3601 525.104 52.7737C523.729 55.1872 523.044 58.4743 523.044 62.6316V89.889H513.593V37.5839H513.597Z" fill="black"/>
<path d="M560.437 88.6275C558.593 87.7896 557.221 86.4825 556.315 84.7064C555.409 82.9302 554.96 80.5652 554.96 77.6146V45.6305H545.409V37.5843H554.96V21.4919H564.51V37.5843H578.383V45.6305H564.51V76.5081C564.51 78.3846 564.928 79.7434 565.766 80.5814C566.604 81.4193 567.959 81.8399 569.836 81.8399H578.38V89.8861H567.823C564.74 89.8861 562.278 89.4687 560.434 88.6275H560.437Z" fill="black"/>
<path d="M586.515 86.5667C582.494 83.5481 580.316 78.9572 579.98 72.7875H589.43C589.831 76.5437 591.122 79.2419 593.3 80.8855C595.477 82.529 598.644 83.3508 602.799 83.3508C606.484 83.3508 609.366 82.6973 611.443 81.3902C613.52 80.0831 614.559 78.2584 614.559 75.9096C614.559 74.3017 614.258 73.027 613.656 72.0887C613.051 71.1505 611.828 70.3287 609.987 69.6234C608.143 68.9181 605.345 68.2646 601.592 67.6628C596.431 66.7925 592.378 65.6343 589.427 64.1946C586.476 62.7517 584.416 61.0111 583.244 58.9631C582.07 56.9184 581.484 54.4208 581.484 51.4702C581.484 46.9117 583.309 43.259 586.962 40.509C590.614 37.759 595.39 36.384 601.288 36.384C608.056 36.384 613.352 37.9111 617.17 40.9587C620.991 44.0096 622.964 48.2867 623.1 53.7834H613.75C613.614 50.2311 612.443 47.7334 610.233 46.2905C608.02 44.8508 605.037 44.1293 601.288 44.1293C598.272 44.1293 595.791 44.7667 593.85 46.0414C591.905 47.3161 590.935 49.0599 590.935 51.2728C590.935 52.8808 591.287 54.1393 591.989 55.0452C592.695 55.9511 593.999 56.7405 595.911 57.407C597.819 58.0767 600.618 58.714 604.303 59.319C609.395 60.1926 613.384 61.3152 616.267 62.687C619.146 64.062 621.175 65.754 622.349 67.7664C623.521 69.7787 624.109 72.2925 624.109 75.3111C624.109 80.274 622.133 84.1467 618.179 86.929C614.226 89.7114 609.065 91.1025 602.698 91.1025C595.927 91.1025 590.533 89.5949 586.512 86.5764L586.515 86.5667Z" fill="black"/>
</g>
<defs>
<clipPath id="clip0_2711_2926">
<rect width="624.108" height="110" fill="white"/>
</clipPath>
</defs>
</svg>
